PathFileType	4	(X/Y/Z)	T00_JumpTrial_0-2667.trc
DataRate	CameraRate	NumFrames	NumMarkers	Units	OrigDataRate	OrigDataStartFrame	OrigNumFrames
30	30	9	21	m	30	1000	2667
Frame#	Time	RHip			RKnee			RAnkle			RBigToe			RSmallToe			RHeel			LHip			LKnee			LAnkle			LBigToe			LSmallToe			LHeel			Neck			Head			Nose			RShoulder			RElbow			RWrist			LShoulder			LElbow			LWrist		
		X1	Y1	Z1	X2	Y2	Z2	X3	Y3	Z3	X4	Y4	Z4	X5	Y5	Z5	X6	Y6	Z6	X7	Y7	Z7	X8	Y8	Z8	X9	Y9	Z9	X10	Y10	Z10	X11	Y11	Z11	X12	Y12	Z12	X13	Y13	Z13	X14	Y14	Z14	X15	Y15	Z15	X16	Y16	Z16	X17	Y17	Z17	X18	Y18	Z18	X19	Y19	Z19	X20	Y20	Z20	X21	Y21	Z21
1001	33.36666666666667	-5.141602156354217	0.6895351126740796	0.552797203852049	-4.416676903312395	2.784100640397331	0.5829899152016121	-6.628616083639185	-1.1600321018300725	0.1866725709032101	-4.572343127430414	3.2379984157889456	0.2102695781676239	-4.561476275427699	3.1773221314560844	0.0906661912449506	-4.1496542772599545	2.652161459821335	0.3748969664856041	-3.9940467438934912	2.514053801753252	0.2808172202323609	-5.0498868983155765	2.044210963048744	0.581261493191109	-6.745446372166297	-1.154777004514231	-0.0012748320206126401	-4.737828826832351	3.38581062040716	0.5074806264982781	-4.8468040635971015	3.3429073514656964	0.6757596591691731	-4.2610525303763245	2.7565073603097043	0.5777858161506148				-5.748541944727602	-1.168032338428924	0.4388514944010689	-7.076840432252993	-0.982975387912993	0.02419545677231553	-4.822399560016644	-0.2366872664965076	1.2727345670871837	-4.995089711953448	0.6490808487471625	0.25229938460279666	-4.802379185391661	1.9589081206154049	0.0080256218472466	-5.222816193529833	-0.6755101637380176	0.6954781626777639	-4.832109202860399	0.26741380705916895	1.7305220858021522	-5.50733350283054	0.7902919629712881	-0.06523199059960322
1002	33.4	-4.160588530911077	0.24826970782478386	0.5921777286591865				-8.632147288699509	-1.1814148192602067	0.09889620619203174							-2.212328293550294	1.112442258935765	0.2793917192300534				-4.69961927607895	1.2964684711664942	0.5715982477196544	-8.889100801487809	-1.160828315690397	-0.1257652250597641							1.0713198952159173	-0.4383599117944156	0.5405298193336202				-6.83552145606245	-1.2279212071298715	0.40675153099962236	-9.183671770145464	-0.9754940410745849	-0.08800210239966401	-3.8618544023762107	-0.5990793863559063	1.2387986198153678	-3.447912574652353	0.07742498943788334	0.38517476826530184	-3.5793685717045407	0.8803481008943859	0.0321442484598778	-5.299053064571179	-0.8229311691857442	0.6935879299938841	-2.881225956677511	-0.4170991295136499	1.598076611585842	-4.67811451340983	0.37636621734303954	0.044416605890869
1003	33.43333333333333	-4.47167309131481	0.16827306653216076	0.5711520659974755				-8.035593129260214	-1.3402463539041973	0.18391444122223968													-6.676349892802126	1.9608861547491143	0.5908407469141139	-8.204685983628632	-1.3230134715939	-0.02908115407995851													-6.3291337345635545	-1.3828199197200506	0.4607276703244506	-8.60394514221852	-1.1574388211882467	0.007277990494452345	-3.957827993792537	-0.7719429327015445	1.257051225231876	-3.683446062091389	-0.01809375557262655	0.35618516211124407	-4.628869017827643	1.170975828234931	-0.0537383047662062	-5.084989008948108	-0.987092251512166	0.7184844774411426	-3.109679302325308	-0.6297282249674592	1.6741501333588207	-4.7149875636479885	0.21938617546696595	0.0473819298113076
1004	33.46666666666667	-5.408969479450567	0.3358542660436466	0.5349539026906152				-5.396802263068637	-1.5436955970919024	0.36289910130263214																-5.396203323541879	-1.5387295669563499	0.19551088194289504													-4.727275328641439	-1.5459576492134863	0.5494694034831311	-5.8443181963140916	-1.4215018611007388	0.23126982181687594	-4.969130295499675	-0.7456759013461223	1.3406548549421684	-4.679602924702294	0.16489190123617042	0.27572712102250035				-4.747459914590041	-1.0887339792628614	0.749834931062456	-5.093433040497357	-0.4492391171029986	1.9659547861271627	-4.9870897749575915	0.2180869653094092	0.012051714351389518
1005	33.5	-6.002960103772577	0.4746924427994068	0.5195991305504056				-3.2598851282592407	-1.6684894874533591	0.48877199300535035																-3.196353641120209	-1.6690106576382173	0.3545822943102105													-3.5147311232495118	-1.6366794618894744	0.6063168851572763	-3.5476611934734725	-1.5950939294078519	0.40218459282130453	-5.813848645810621	-0.702455570800244	1.415829385300999	-5.2793645080777445	0.3042561896457211	0.2342242488596503				-4.500709681966176	-1.1266378506969015	0.7686014203438118	-6.916725733853509	-0.27496242255020925	2.231628210349457	-5.021030581021964	0.21364176515125397	-0.0009975150715592774
1006	33.53333333333333	-6.137798727456531	0.5156681621664639	0.5198720001058408				-2.7285208967135604	-1.6903320489047726	0.5163634740606764																-2.658918217436038	-1.692840127814844	0.39017648157343676													-3.2382341403506167	-1.6497202982071528	0.6173317548320062	-2.892925502227975	-1.631074808830421	0.4523741329875709	-5.882360967697204	-0.7431555666441304	1.440686250034671	-5.4000536133655945	0.3429350490362991	0.22922262306522959				-4.410899726943041	-1.1325581457264169	0.7740066176294803	-7.49274348704388	-0.3114782664316967	2.324644515430828	-5.037155420336832	0.2227819228859398	-0.010065913865085032
1007	33.56666666666667	-6.304621375691162	0.5791447036110288	0.5094129307178201				-2.9936843393841484	-1.6595767838579651	0.5005819361462037																-2.9015366970468404	-1.6659506224800744	0.3721582721891154													-3.4150980979237375	-1.6191763053180948	0.6090740953966971	-3.0877668164454475	-1.5915510071784456	0.43988583798385616	-5.45767194809844	-0.8225847030348848	1.4391451242997544	-5.590710774229027	0.4136222812036346	0.2107578289549361				-4.394077045874807	-1.119226637404505	0.7758780472772533	-7.23071649981733	-0.46110697242439375	2.3053479161438566	-5.3573804743327145	0.3268466065009507	-0.054378112367940955
1008	33.6	-6.705226645367977	0.7315243767306467	0.4802561287509348				-3.2275245517075186	-1.612770477418422	0.488476056880816																-3.1264436584579527	-1.6213888171006046	0.3566578942488343													-3.5994367303816612	-1.5653452564910868	0.6021147123065105	-3.3156727643420325	-1.529616238460187	0.42225131251718384	-5.046798810365617	-0.8776703965021304	1.4389041459391276	-6.108374949832047	0.5917296555283807	0.15504183658331094				-4.407171495852386	-1.077296210176753	0.7772630881505493	-6.8645672137810765	-0.5956871951703266	2.2671860816186107	-5.930832016396048	0.5256046453843695	-0.13331176792442
1009	33.63333333333333	-7.107595659548039	0.9297239903958423	0.4495973807702137				-3.286030339054277	-1.5510440606396878	0.48659697880578023																-3.2033810206070337	-1.5582536327572232	0.3516116221377171													-3.6707045427777674	-1.4944662036437115	0.6006975296580769	-3.414708381008391	-1.456061073899714	0.41445687937035786	-4.941184622023096	-0.8801261906998948	1.4447411298210628	-6.768052960982326	0.8463327833278997	0.07862930525086448				-4.4695388916351	-1.0000079198151173	0.7752997941610504	-6.696322508751199	-0.6850661999784406	2.240253291041777	-6.493676305072353	0.7645704508558177	-0.2203172137365485
